<mxfile host="app.diagrams.net" modified="2023-08-17T16:11:02.123Z" agent="Mozilla/5.0 (Windows NT 10.0; Win64; x64) AppleWebKit/537.36 (KHTML, like Gecko) Chrome/114.0.0.0 Safari/537.36" etag="ERs1MRtGw7eOGx2luwa5" version="21.6.8" type="device">
  <diagram name="Page-1" id="SBlvjZ8Goc2oh6Bi6xWZ">
    <mxGraphModel dx="3263" dy="2062" grid="1" gridSize="10" guides="1" tooltips="1" connect="1" arrows="1" fold="1" page="1" pageScale="1" pageWidth="850" pageHeight="1100" math="0" shadow="0">
      <root>
        <mxCell id="0" />
        <mxCell id="1" parent="0" />
        <mxCell id="qX-yx2-JKaVg3CARuCP9-1" value="Patient" style="shape=umlActor;verticalLabelPosition=bottom;verticalAlign=top;html=1;outlineConnect=0;" parent="1" vertex="1">
          <mxGeometry x="-1050" y="-240" width="30" height="60" as="geometry" />
        </mxCell>
        <mxCell id="qX-yx2-JKaVg3CARuCP9-3" value="" style="endArrow=classic;html=1;rounded=0;" parent="1" source="qX-yx2-JKaVg3CARuCP9-1" target="qX-yx2-JKaVg3CARuCP9-13" edge="1">
          <mxGeometry width="50" height="50" relative="1" as="geometry">
            <mxPoint x="-830" y="-280" as="sourcePoint" />
            <mxPoint x="-620" y="-480" as="targetPoint" />
          </mxGeometry>
        </mxCell>
        <mxCell id="qX-yx2-JKaVg3CARuCP9-4" value="Staff&lt;br&gt;(Provider)" style="shape=umlActor;verticalLabelPosition=bottom;verticalAlign=top;html=1;outlineConnect=0;" parent="1" vertex="1">
          <mxGeometry x="-200" y="-220" width="30" height="60" as="geometry" />
        </mxCell>
        <mxCell id="qX-yx2-JKaVg3CARuCP9-5" value="Insurance Agency" style="shape=umlActor;verticalLabelPosition=bottom;verticalAlign=top;html=1;outlineConnect=0;" parent="1" vertex="1">
          <mxGeometry x="-1220" y="60" width="30" height="60" as="geometry" />
        </mxCell>
        <mxCell id="qX-yx2-JKaVg3CARuCP9-8" value="Staff&lt;br&gt;(non-provider)" style="shape=umlActor;verticalLabelPosition=bottom;verticalAlign=top;html=1;outlineConnect=0;" parent="1" vertex="1">
          <mxGeometry x="-220" y="90" width="30" height="60" as="geometry" />
        </mxCell>
        <mxCell id="qX-yx2-JKaVg3CARuCP9-11" value="Schedule Appointment" style="ellipse;whiteSpace=wrap;html=1;" parent="1" vertex="1">
          <mxGeometry x="-710" y="-540" width="120" height="80" as="geometry" />
        </mxCell>
        <mxCell id="qX-yx2-JKaVg3CARuCP9-12" value="Pay the patient&#39;s bills" style="ellipse;whiteSpace=wrap;html=1;" parent="1" vertex="1">
          <mxGeometry x="-960" y="-90" width="120" height="80" as="geometry" />
        </mxCell>
        <mxCell id="qX-yx2-JKaVg3CARuCP9-13" value="Apply for Insurance Plan" style="ellipse;whiteSpace=wrap;html=1;" parent="1" vertex="1">
          <mxGeometry x="-1290" y="-400" width="120" height="80" as="geometry" />
        </mxCell>
        <mxCell id="qX-yx2-JKaVg3CARuCP9-15" value="" style="endArrow=classic;html=1;rounded=0;" parent="1" source="qX-yx2-JKaVg3CARuCP9-1" target="qX-yx2-JKaVg3CARuCP9-12" edge="1">
          <mxGeometry width="50" height="50" relative="1" as="geometry">
            <mxPoint x="-690" y="-210" as="sourcePoint" />
            <mxPoint x="-610" y="-470" as="targetPoint" />
          </mxGeometry>
        </mxCell>
        <mxCell id="qX-yx2-JKaVg3CARuCP9-16" value="" style="endArrow=classic;html=1;rounded=0;" parent="1" source="qX-yx2-JKaVg3CARuCP9-1" target="qX-yx2-JKaVg3CARuCP9-11" edge="1">
          <mxGeometry width="50" height="50" relative="1" as="geometry">
            <mxPoint x="-760" y="-214" as="sourcePoint" />
            <mxPoint x="-674" y="-297" as="targetPoint" />
          </mxGeometry>
        </mxCell>
        <mxCell id="qX-yx2-JKaVg3CARuCP9-17" value="Attend Appointment" style="ellipse;whiteSpace=wrap;html=1;" parent="1" vertex="1">
          <mxGeometry x="-860" y="-330" width="120" height="80" as="geometry" />
        </mxCell>
        <mxCell id="qX-yx2-JKaVg3CARuCP9-18" value="" style="endArrow=classic;html=1;rounded=0;" parent="1" source="qX-yx2-JKaVg3CARuCP9-1" target="qX-yx2-JKaVg3CARuCP9-17" edge="1">
          <mxGeometry width="50" height="50" relative="1" as="geometry">
            <mxPoint x="-760" y="-200" as="sourcePoint" />
            <mxPoint x="-650" y="-200" as="targetPoint" />
          </mxGeometry>
        </mxCell>
        <mxCell id="qX-yx2-JKaVg3CARuCP9-20" value="" style="endArrow=classic;html=1;rounded=0;" parent="1" source="qX-yx2-JKaVg3CARuCP9-4" target="qX-yx2-JKaVg3CARuCP9-17" edge="1">
          <mxGeometry width="50" height="50" relative="1" as="geometry">
            <mxPoint x="-760" y="-190" as="sourcePoint" />
            <mxPoint x="-633" y="-108" as="targetPoint" />
          </mxGeometry>
        </mxCell>
        <mxCell id="qX-yx2-JKaVg3CARuCP9-21" value="" style="endArrow=classic;html=1;rounded=0;" parent="1" source="qX-yx2-JKaVg3CARuCP9-4" target="qX-yx2-JKaVg3CARuCP9-11" edge="1">
          <mxGeometry width="50" height="50" relative="1" as="geometry">
            <mxPoint x="-370" y="-71" as="sourcePoint" />
            <mxPoint x="-530" y="-77" as="targetPoint" />
          </mxGeometry>
        </mxCell>
        <mxCell id="qX-yx2-JKaVg3CARuCP9-22" value="" style="endArrow=classic;html=1;rounded=0;" parent="1" source="qX-yx2-JKaVg3CARuCP9-8" target="qX-yx2-JKaVg3CARuCP9-11" edge="1">
          <mxGeometry width="50" height="50" relative="1" as="geometry">
            <mxPoint x="-360" y="-61" as="sourcePoint" />
            <mxPoint x="-520" y="-67" as="targetPoint" />
          </mxGeometry>
        </mxCell>
        <mxCell id="qX-yx2-JKaVg3CARuCP9-23" value="" style="endArrow=classic;html=1;rounded=0;" parent="1" source="qX-yx2-JKaVg3CARuCP9-5" target="qX-yx2-JKaVg3CARuCP9-12" edge="1">
          <mxGeometry width="50" height="50" relative="1" as="geometry">
            <mxPoint x="-760" y="-202" as="sourcePoint" />
            <mxPoint x="-509" y="-233" as="targetPoint" />
          </mxGeometry>
        </mxCell>
        <mxCell id="qX-yx2-JKaVg3CARuCP9-24" value="" style="endArrow=classic;html=1;rounded=0;dashed=1;" parent="1" source="qX-yx2-JKaVg3CARuCP9-11" target="qX-yx2-JKaVg3CARuCP9-17" edge="1">
          <mxGeometry width="50" height="50" relative="1" as="geometry">
            <mxPoint x="-540" y="-460" as="sourcePoint" />
            <mxPoint x="-490" y="-510" as="targetPoint" />
          </mxGeometry>
        </mxCell>
        <mxCell id="qX-yx2-JKaVg3CARuCP9-25" value="" style="endArrow=classic;html=1;rounded=0;dashed=1;" parent="1" source="qX-yx2-JKaVg3CARuCP9-17" target="qX-yx2-JKaVg3CARuCP9-12" edge="1">
          <mxGeometry width="50" height="50" relative="1" as="geometry">
            <mxPoint x="-540" y="-460" as="sourcePoint" />
            <mxPoint x="-490" y="-510" as="targetPoint" />
          </mxGeometry>
        </mxCell>
        <mxCell id="qX-yx2-JKaVg3CARuCP9-26" value="Reschedule Appointment" style="ellipse;whiteSpace=wrap;html=1;" parent="1" vertex="1">
          <mxGeometry x="-760" y="-210" width="120" height="80" as="geometry" />
        </mxCell>
        <mxCell id="qX-yx2-JKaVg3CARuCP9-27" value="" style="endArrow=classic;html=1;rounded=0;" parent="1" source="qX-yx2-JKaVg3CARuCP9-1" target="qX-yx2-JKaVg3CARuCP9-26" edge="1">
          <mxGeometry width="50" height="50" relative="1" as="geometry">
            <mxPoint x="-870" y="-130.000932642487" as="sourcePoint" />
            <mxPoint x="-692" y="-8.260000000000005" as="targetPoint" />
          </mxGeometry>
        </mxCell>
        <mxCell id="qX-yx2-JKaVg3CARuCP9-28" value="" style="endArrow=classic;html=1;rounded=0;" parent="1" source="qX-yx2-JKaVg3CARuCP9-4" target="qX-yx2-JKaVg3CARuCP9-26" edge="1">
          <mxGeometry width="50" height="50" relative="1" as="geometry">
            <mxPoint x="-750" y="-180" as="sourcePoint" />
            <mxPoint x="-582" y="-68" as="targetPoint" />
          </mxGeometry>
        </mxCell>
        <mxCell id="qX-yx2-JKaVg3CARuCP9-29" value="" style="endArrow=classic;html=1;rounded=0;" parent="1" source="qX-yx2-JKaVg3CARuCP9-8" target="qX-yx2-JKaVg3CARuCP9-26" edge="1">
          <mxGeometry width="50" height="50" relative="1" as="geometry">
            <mxPoint x="-434.52" y="189.25" as="sourcePoint" />
            <mxPoint x="-530.5658946752492" y="213.7486287539732" as="targetPoint" />
          </mxGeometry>
        </mxCell>
        <mxCell id="qX-yx2-JKaVg3CARuCP9-32" value="" style="endArrow=classic;html=1;rounded=0;dashed=1;" parent="1" source="qX-yx2-JKaVg3CARuCP9-11" target="qX-yx2-JKaVg3CARuCP9-26" edge="1">
          <mxGeometry width="50" height="50" relative="1" as="geometry">
            <mxPoint x="-540" y="-460" as="sourcePoint" />
            <mxPoint x="-490" y="-510" as="targetPoint" />
          </mxGeometry>
        </mxCell>
        <mxCell id="qX-yx2-JKaVg3CARuCP9-33" value="Perform Procedure" style="ellipse;whiteSpace=wrap;html=1;" parent="1" vertex="1">
          <mxGeometry x="-450" y="-470" width="120" height="80" as="geometry" />
        </mxCell>
        <mxCell id="qX-yx2-JKaVg3CARuCP9-34" value="" style="endArrow=classic;html=1;rounded=0;" parent="1" source="qX-yx2-JKaVg3CARuCP9-4" target="qX-yx2-JKaVg3CARuCP9-33" edge="1">
          <mxGeometry width="50" height="50" relative="1" as="geometry">
            <mxPoint x="-230" y="-15" as="sourcePoint" />
            <mxPoint x="-417" y="-207" as="targetPoint" />
          </mxGeometry>
        </mxCell>
        <mxCell id="qX-yx2-JKaVg3CARuCP9-35" value="" style="endArrow=classic;html=1;rounded=0;dashed=1;" parent="1" source="qX-yx2-JKaVg3CARuCP9-17" target="qX-yx2-JKaVg3CARuCP9-33" edge="1">
          <mxGeometry width="50" height="50" relative="1" as="geometry">
            <mxPoint x="-526" y="-127" as="sourcePoint" />
            <mxPoint x="-474" y="-203" as="targetPoint" />
          </mxGeometry>
        </mxCell>
        <mxCell id="qX-yx2-JKaVg3CARuCP9-37" value="Submit Insurance Claim" style="ellipse;whiteSpace=wrap;html=1;" parent="1" vertex="1">
          <mxGeometry x="-680" y="-50" width="120" height="80" as="geometry" />
        </mxCell>
        <mxCell id="qX-yx2-JKaVg3CARuCP9-39" value="" style="endArrow=classic;html=1;rounded=0;" parent="1" source="qX-yx2-JKaVg3CARuCP9-8" target="qX-yx2-JKaVg3CARuCP9-37" edge="1">
          <mxGeometry width="50" height="50" relative="1" as="geometry">
            <mxPoint x="-324.52" y="293.25" as="sourcePoint" />
            <mxPoint x="-597.52" y="238.25" as="targetPoint" />
          </mxGeometry>
        </mxCell>
        <mxCell id="qX-yx2-JKaVg3CARuCP9-40" value="Approve Insurance Claim" style="ellipse;whiteSpace=wrap;html=1;" parent="1" vertex="1">
          <mxGeometry x="-1060" y="226.25" width="120" height="80" as="geometry" />
        </mxCell>
        <mxCell id="qX-yx2-JKaVg3CARuCP9-41" value="Deny Insurance Claim" style="ellipse;whiteSpace=wrap;html=1;" parent="1" vertex="1">
          <mxGeometry x="-1070" y="60" width="120" height="80" as="geometry" />
        </mxCell>
        <mxCell id="qX-yx2-JKaVg3CARuCP9-42" value="" style="endArrow=classic;html=1;rounded=0;" parent="1" source="qX-yx2-JKaVg3CARuCP9-5" target="qX-yx2-JKaVg3CARuCP9-40" edge="1">
          <mxGeometry width="50" height="50" relative="1" as="geometry">
            <mxPoint x="-320" y="-407" as="sourcePoint" />
            <mxPoint x="-553" y="-353" as="targetPoint" />
          </mxGeometry>
        </mxCell>
        <mxCell id="qX-yx2-JKaVg3CARuCP9-43" value="" style="endArrow=classic;html=1;rounded=0;" parent="1" source="qX-yx2-JKaVg3CARuCP9-5" target="qX-yx2-JKaVg3CARuCP9-41" edge="1">
          <mxGeometry width="50" height="50" relative="1" as="geometry">
            <mxPoint x="-290" y="-420" as="sourcePoint" />
            <mxPoint x="-223" y="-462" as="targetPoint" />
          </mxGeometry>
        </mxCell>
        <mxCell id="qX-yx2-JKaVg3CARuCP9-44" value="" style="endArrow=classic;html=1;rounded=0;dashed=1;" parent="1" source="qX-yx2-JKaVg3CARuCP9-37" target="qX-yx2-JKaVg3CARuCP9-40" edge="1">
          <mxGeometry width="50" height="50" relative="1" as="geometry">
            <mxPoint x="-30" y="-90" as="sourcePoint" />
            <mxPoint x="-130" y="-50" as="targetPoint" />
            <Array as="points" />
          </mxGeometry>
        </mxCell>
        <mxCell id="qX-yx2-JKaVg3CARuCP9-45" value="" style="endArrow=classic;html=1;rounded=0;dashed=1;" parent="1" source="qX-yx2-JKaVg3CARuCP9-37" target="qX-yx2-JKaVg3CARuCP9-41" edge="1">
          <mxGeometry width="50" height="50" relative="1" as="geometry">
            <mxPoint x="-103" y="-59" as="sourcePoint" />
            <mxPoint x="-167" y="-251" as="targetPoint" />
            <Array as="points" />
          </mxGeometry>
        </mxCell>
        <mxCell id="qX-yx2-JKaVg3CARuCP9-46" value="Apply Fees to Patient Account" style="ellipse;whiteSpace=wrap;html=1;" parent="1" vertex="1">
          <mxGeometry x="-680" y="80" width="120" height="80" as="geometry" />
        </mxCell>
        <mxCell id="qX-yx2-JKaVg3CARuCP9-47" value="" style="endArrow=classic;html=1;rounded=0;" parent="1" source="qX-yx2-JKaVg3CARuCP9-8" target="qX-yx2-JKaVg3CARuCP9-46" edge="1">
          <mxGeometry width="50" height="50" relative="1" as="geometry">
            <mxPoint x="-294.52" y="284.25" as="sourcePoint" />
            <mxPoint x="-200.00068590847607" y="201.47999221016994" as="targetPoint" />
          </mxGeometry>
        </mxCell>
        <mxCell id="qX-yx2-JKaVg3CARuCP9-48" value="" style="endArrow=classic;html=1;rounded=0;dashed=1;" parent="1" source="qX-yx2-JKaVg3CARuCP9-40" target="qX-yx2-JKaVg3CARuCP9-46" edge="1">
          <mxGeometry width="50" height="50" relative="1" as="geometry">
            <mxPoint x="-102" y="-59" as="sourcePoint" />
            <mxPoint x="-158" y="-241" as="targetPoint" />
            <Array as="points" />
          </mxGeometry>
        </mxCell>
        <mxCell id="qX-yx2-JKaVg3CARuCP9-49" value="" style="endArrow=classic;html=1;rounded=0;dashed=1;" parent="1" source="qX-yx2-JKaVg3CARuCP9-41" target="qX-yx2-JKaVg3CARuCP9-46" edge="1">
          <mxGeometry width="50" height="50" relative="1" as="geometry">
            <mxPoint x="-146" y="-243" as="sourcePoint" />
            <mxPoint x="40" y="33" as="targetPoint" />
            <Array as="points" />
          </mxGeometry>
        </mxCell>
        <mxCell id="qX-yx2-JKaVg3CARuCP9-50" value="" style="endArrow=classic;html=1;rounded=0;dashed=1;" parent="1" source="qX-yx2-JKaVg3CARuCP9-33" target="qX-yx2-JKaVg3CARuCP9-37" edge="1">
          <mxGeometry width="50" height="50" relative="1" as="geometry">
            <mxPoint x="-127" y="-50" as="sourcePoint" />
            <mxPoint x="-163" y="-240" as="targetPoint" />
            <Array as="points" />
          </mxGeometry>
        </mxCell>
        <mxCell id="qX-yx2-JKaVg3CARuCP9-51" value="Approve Insurance Plan Application" style="ellipse;whiteSpace=wrap;html=1;" parent="1" vertex="1">
          <mxGeometry x="-1210" y="-120" width="120" height="80" as="geometry" />
        </mxCell>
        <mxCell id="qX-yx2-JKaVg3CARuCP9-52" value="Deny Insurance Plan Application" style="ellipse;whiteSpace=wrap;html=1;" parent="1" vertex="1">
          <mxGeometry x="-1410" y="-110" width="120" height="80" as="geometry" />
        </mxCell>
        <mxCell id="qX-yx2-JKaVg3CARuCP9-53" value="" style="endArrow=classic;html=1;rounded=0;" parent="1" source="qX-yx2-JKaVg3CARuCP9-5" target="qX-yx2-JKaVg3CARuCP9-52" edge="1">
          <mxGeometry width="50" height="50" relative="1" as="geometry">
            <mxPoint x="-320" y="-407" as="sourcePoint" />
            <mxPoint x="-553" y="-353" as="targetPoint" />
          </mxGeometry>
        </mxCell>
        <mxCell id="qX-yx2-JKaVg3CARuCP9-54" value="" style="endArrow=classic;html=1;rounded=0;" parent="1" source="qX-yx2-JKaVg3CARuCP9-5" target="qX-yx2-JKaVg3CARuCP9-51" edge="1">
          <mxGeometry width="50" height="50" relative="1" as="geometry">
            <mxPoint x="-313" y="-440" as="sourcePoint" />
            <mxPoint x="-345" y="-561" as="targetPoint" />
          </mxGeometry>
        </mxCell>
        <mxCell id="qX-yx2-JKaVg3CARuCP9-56" value="Update Personal Information" style="ellipse;whiteSpace=wrap;html=1;" parent="1" vertex="1">
          <mxGeometry x="-1230" y="-570" width="120" height="80" as="geometry" />
        </mxCell>
        <mxCell id="qX-yx2-JKaVg3CARuCP9-57" value="" style="endArrow=classic;html=1;rounded=0;" parent="1" source="qX-yx2-JKaVg3CARuCP9-1" target="qX-yx2-JKaVg3CARuCP9-56" edge="1">
          <mxGeometry width="50" height="50" relative="1" as="geometry">
            <mxPoint x="-760" y="-194" as="sourcePoint" />
            <mxPoint x="-647" y="-150" as="targetPoint" />
          </mxGeometry>
        </mxCell>
        <mxCell id="qX-yx2-JKaVg3CARuCP9-58" value="Enter the System/Make an account" style="ellipse;whiteSpace=wrap;html=1;" parent="1" vertex="1">
          <mxGeometry x="-1030" y="-550" width="120" height="80" as="geometry" />
        </mxCell>
        <mxCell id="qX-yx2-JKaVg3CARuCP9-59" value="" style="endArrow=classic;html=1;rounded=0;" parent="1" source="qX-yx2-JKaVg3CARuCP9-1" target="qX-yx2-JKaVg3CARuCP9-58" edge="1">
          <mxGeometry width="50" height="50" relative="1" as="geometry">
            <mxPoint x="-790" y="-196" as="sourcePoint" />
            <mxPoint x="-925" y="-156" as="targetPoint" />
          </mxGeometry>
        </mxCell>
        <mxCell id="qX-yx2-JKaVg3CARuCP9-60" value="" style="endArrow=classic;html=1;rounded=0;dashed=1;" parent="1" source="qX-yx2-JKaVg3CARuCP9-58" target="qX-yx2-JKaVg3CARuCP9-56" edge="1">
          <mxGeometry width="50" height="50" relative="1" as="geometry">
            <mxPoint x="-570" y="-418" as="sourcePoint" />
            <mxPoint x="-720" y="-412" as="targetPoint" />
          </mxGeometry>
        </mxCell>
        <mxCell id="qX-yx2-JKaVg3CARuCP9-62" value="" style="endArrow=classic;html=1;rounded=0;dashed=1;" parent="1" source="qX-yx2-JKaVg3CARuCP9-58" target="qX-yx2-JKaVg3CARuCP9-11" edge="1">
          <mxGeometry width="50" height="50" relative="1" as="geometry">
            <mxPoint x="-970" y="-260" as="sourcePoint" />
            <mxPoint x="-970" y="-170" as="targetPoint" />
          </mxGeometry>
        </mxCell>
        <mxCell id="qX-yx2-JKaVg3CARuCP9-64" value="Enter Staff into system" style="ellipse;whiteSpace=wrap;html=1;" parent="1" vertex="1">
          <mxGeometry x="-550" y="350" width="120" height="80" as="geometry" />
        </mxCell>
        <mxCell id="qX-yx2-JKaVg3CARuCP9-65" value="Update Staff Role" style="ellipse;whiteSpace=wrap;html=1;" parent="1" vertex="1">
          <mxGeometry x="-370" y="400" width="120" height="80" as="geometry" />
        </mxCell>
        <mxCell id="qX-yx2-JKaVg3CARuCP9-66" value="" style="endArrow=classic;html=1;rounded=0;" parent="1" source="qX-yx2-JKaVg3CARuCP9-8" target="qX-yx2-JKaVg3CARuCP9-64" edge="1">
          <mxGeometry width="50" height="50" relative="1" as="geometry">
            <mxPoint x="-374.52" y="280.25" as="sourcePoint" />
            <mxPoint x="-522.52" y="225.25" as="targetPoint" />
          </mxGeometry>
        </mxCell>
        <mxCell id="qX-yx2-JKaVg3CARuCP9-67" value="" style="endArrow=classic;html=1;rounded=0;" parent="1" source="qX-yx2-JKaVg3CARuCP9-8" target="qX-yx2-JKaVg3CARuCP9-65" edge="1">
          <mxGeometry width="50" height="50" relative="1" as="geometry">
            <mxPoint x="-374.52" y="291.25" as="sourcePoint" />
            <mxPoint x="-490.52" y="329.25" as="targetPoint" />
          </mxGeometry>
        </mxCell>
        <mxCell id="qX-yx2-JKaVg3CARuCP9-68" value="" style="endArrow=classic;html=1;rounded=0;dashed=1;" parent="1" source="qX-yx2-JKaVg3CARuCP9-64" target="qX-yx2-JKaVg3CARuCP9-65" edge="1">
          <mxGeometry width="50" height="50" relative="1" as="geometry">
            <mxPoint x="-73.52" y="-23.75" as="sourcePoint" />
            <mxPoint x="-125.52" y="196.25" as="targetPoint" />
            <Array as="points" />
          </mxGeometry>
        </mxCell>
        <mxCell id="qX-yx2-JKaVg3CARuCP9-69" value="Update Personal Information" style="ellipse;whiteSpace=wrap;html=1;" parent="1" vertex="1">
          <mxGeometry x="-700" y="226.25" width="120" height="80" as="geometry" />
        </mxCell>
        <mxCell id="qX-yx2-JKaVg3CARuCP9-70" value="" style="endArrow=classic;html=1;rounded=0;" parent="1" source="qX-yx2-JKaVg3CARuCP9-4" target="qX-yx2-JKaVg3CARuCP9-69" edge="1">
          <mxGeometry width="50" height="50" relative="1" as="geometry">
            <mxPoint x="-414.52" y="130" as="sourcePoint" />
            <mxPoint x="-602.52" y="171.25" as="targetPoint" />
          </mxGeometry>
        </mxCell>
        <mxCell id="qX-yx2-JKaVg3CARuCP9-72" value="" style="endArrow=classic;html=1;rounded=0;dashed=1;" parent="1" source="qX-yx2-JKaVg3CARuCP9-64" target="qX-yx2-JKaVg3CARuCP9-69" edge="1">
          <mxGeometry width="50" height="50" relative="1" as="geometry">
            <mxPoint x="-513.52" y="380.25" as="sourcePoint" />
            <mxPoint x="-465.52" y="432.25" as="targetPoint" />
            <Array as="points" />
          </mxGeometry>
        </mxCell>
        <mxCell id="qX-yx2-JKaVg3CARuCP9-73" value="" style="endArrow=classic;html=1;rounded=0;" parent="1" source="qX-yx2-JKaVg3CARuCP9-8" target="qX-yx2-JKaVg3CARuCP9-69" edge="1">
          <mxGeometry width="50" height="50" relative="1" as="geometry">
            <mxPoint x="-794.52" y="-42.75" as="sourcePoint" />
            <mxPoint x="-914.52" y="46.25" as="targetPoint" />
          </mxGeometry>
        </mxCell>
        <mxCell id="qX-yx2-JKaVg3CARuCP9-74" value="" style="endArrow=classic;html=1;rounded=0;dashed=1;" parent="1" source="qX-yx2-JKaVg3CARuCP9-46" target="qX-yx2-JKaVg3CARuCP9-12" edge="1">
          <mxGeometry width="50" height="50" relative="1" as="geometry">
            <mxPoint x="-229" y="-49" as="sourcePoint" />
            <mxPoint x="-151" y="-331" as="targetPoint" />
            <Array as="points" />
          </mxGeometry>
        </mxCell>
        <mxCell id="qX-yx2-JKaVg3CARuCP9-76" value="" style="endArrow=classic;html=1;rounded=0;dashed=1;" parent="1" source="qX-yx2-JKaVg3CARuCP9-13" target="qX-yx2-JKaVg3CARuCP9-52" edge="1">
          <mxGeometry width="50" height="50" relative="1" as="geometry">
            <mxPoint x="-751" y="-33" as="sourcePoint" />
            <mxPoint x="-619" y="-97" as="targetPoint" />
          </mxGeometry>
        </mxCell>
        <mxCell id="qX-yx2-JKaVg3CARuCP9-77" value="" style="endArrow=classic;html=1;rounded=0;dashed=1;" parent="1" source="qX-yx2-JKaVg3CARuCP9-13" target="qX-yx2-JKaVg3CARuCP9-51" edge="1">
          <mxGeometry width="50" height="50" relative="1" as="geometry">
            <mxPoint x="-621" y="-414" as="sourcePoint" />
            <mxPoint x="-474" y="-397" as="targetPoint" />
          </mxGeometry>
        </mxCell>
      </root>
    </mxGraphModel>
  </diagram>
</mxfile>
